<svg width="1024" height="1024" viewBox="0 0 1024 1024" fill="none" xmlns="http://www.w3.org/2000/svg">
  <defs>
    <linearGradient id="bg" x1="140" y1="108" x2="904" y2="928" gradientUnits="userSpaceOnUse">
      <stop offset="0" stop-color="#B9A6FF"/>
      <stop offset="0.52" stop-color="#91D5F7"/>
      <stop offset="1" stop-color="#F1A9D6"/>
    </linearGradient>
    <linearGradient id="glass" x1="244" y1="208" x2="774" y2="828" gradientUnits="userSpaceOnUse">
      <stop offset="0" stop-color="#FFFFFF" stop-opacity="0.82"/>
      <stop offset="1" stop-color="#FFFFFF" stop-opacity="0.42"/>
    </linearGradient>
    <linearGradient id="shine" x1="278" y1="180" x2="744" y2="844" gradientUnits="userSpaceOnUse">
      <stop offset="0" stop-color="#FFFFFF" stop-opacity="0.34"/>
      <stop offset="1" stop-color="#FFFFFF" stop-opacity="0.04"/>
    </linearGradient>
    <filter id="shadow" x="172" y="160" width="680" height="704" filterUnits="userSpaceOnUse" color-interpolation-filters="sRGB">
      <feFlood flood-opacity="0" result="BackgroundImageFix"/>
      <feColorMatrix in="SourceAlpha" type="matrix" values="0 0 0 0 0 0 0 0 0 0 0 0 0 0 0 0 0 0 127 0" result="hardAlpha"/>
      <feOffset dy="18"/>
      <feGaussianBlur stdDeviation="24"/>
      <feColorMatrix type="matrix" values="0 0 0 0 0.329412 0 0 0 0 0.356863 0 0 0 0 0.843137 0 0 0 0.2 0"/>
      <feBlend mode="normal" in2="BackgroundImageFix" result="effect1_dropShadow_1_1"/>
      <feBlend mode="normal" in="SourceGraphic" in2="effect1_dropShadow_1_1" result="shape"/>
    </filter>
  </defs>

  <rect width="1024" height="1024" rx="228" fill="url(#bg)"/>
  <circle cx="234" cy="214" r="214" fill="#FFFFFF" fill-opacity="0.14"/>
  <circle cx="840" cy="810" r="246" fill="#FFFFFF" fill-opacity="0.1"/>

  <g filter="url(#shadow)">
    <rect x="220" y="196" width="584" height="584" rx="188" fill="url(#glass)"/>
    <rect x="220" y="196" width="584" height="584" rx="188" stroke="#FFFFFF" stroke-opacity="0.45" stroke-width="4"/>
    <rect x="250" y="226" width="524" height="524" rx="162" fill="url(#shine)"/>

    <path d="M404 604H624C688.065 604 740 552.065 740 488C740 423.935 688.065 372 624 372C610.41 372 597.393 374.309 585.287 378.559C561.525 325.629 507.692 288 445 288C360.5 288 292 356.5 292 441C292 447.844 292.453 454.582 293.329 461.187C257.909 478.14 234 514.345 234 556C234 614.542 281.458 662 340 662H404" stroke="#FFFFFF" stroke-width="44" stroke-linecap="round" stroke-linejoin="round"/>

    <path d="M446 446L512 512L580 434" stroke="#5C63DC" stroke-width="42" stroke-linecap="round" stroke-linejoin="round"/>

    <circle cx="408" cy="598" r="34" fill="#FFFFFF"/>
    <circle cx="548" cy="598" r="34" fill="#FFFFFF"/>
    <circle cx="478" cy="666" r="34" fill="#FFFFFF"/>

    <path d="M408 598H548" stroke="#FFFFFF" stroke-width="20" stroke-linecap="round"/>
    <path d="M408 598L478 666" stroke="#FFFFFF" stroke-width="20" stroke-linecap="round"/>
    <path d="M548 598L478 666" stroke="#FFFFFF" stroke-width="20" stroke-linecap="round"/>
  </g>
</svg>
